HIERARCHY
ROOT joint_0
{
	OFFSET 0.000000 0.000000 0.000000
	CHANNELS 6 Xposition Yposition Zposition Zrotation Yrotation Xrotation 
	JOINT joint_1
	{
		OFFSET 14.113007 -2.961990 123.953979
		CHANNELS 3 Zrotation Yrotation Xrotation
		JOINT joint_2
		{
			OFFSET 0.764000 -2.434006 113.871948
			CHANNELS 3 Zrotation Yrotation Xrotation
			JOINT joint_3
			{
				OFFSET 0.186996 -2.169998 113.753052
				CHANNELS 3 Zrotation Yrotation Xrotation
				JOINT joint_4
				{
					OFFSET 16.096001 -2.720001 160.853027
					CHANNELS 3 Zrotation Yrotation Xrotation
					JOINT joint_5
					{
						OFFSET 34.392006 -0.188995 92.567017
						CHANNELS 3 Zrotation Yrotation Xrotation
						End Site
						{
							OFFSET 0.000000 0.000000 0.000000
						}
					}
				}
				JOINT joint_6
				{
					OFFSET 9.183998 -36.684006 89.597046
					CHANNELS 3 Zrotation Yrotation Xrotation
					JOINT joint_7
					{
						OFFSET 0.486000 -164.365997 -28.984009
						CHANNELS 3 Zrotation Yrotation Xrotation
						JOINT joint_8
						{
							OFFSET 38.899002 -34.967010 -291.651978
							CHANNELS 3 Zrotation Yrotation Xrotation
							JOINT joint_9
							{
								OFFSET 41.714005 -45.890991 -258.857056
								CHANNELS 3 Zrotation Yrotation Xrotation
								End Site
								{
									OFFSET 0.000000 0.000000 0.000000
								}
							}
						}
					}
				}
				JOINT joint_10
				{
					OFFSET 8.867004 33.650002 90.817993
					CHANNELS 3 Zrotation Yrotation Xrotation
					JOINT joint_11
					{
						OFFSET 0.018997 164.299999 -29.368042
						CHANNELS 3 Zrotation Yrotation Xrotation
						JOINT joint_12
						{
							OFFSET 29.440994 30.887997 -293.216919
							CHANNELS 3 Zrotation Yrotation Xrotation
							JOINT joint_13
							{
								OFFSET 46.174011 54.490005 -256.422058
								CHANNELS 3 Zrotation Yrotation Xrotation
								End Site
								{
									OFFSET 0.000000 0.000000 0.000000
								}
							}
						}
					}
				}
			}
		}
	}
	JOINT joint_14
	{
		OFFSET -2.264000 -89.466995 -116.150024
		CHANNELS 3 Zrotation Yrotation Xrotation
		JOINT joint_15
		{
			OFFSET -16.400993 -17.452988 -493.781982
			CHANNELS 3 Zrotation Yrotation Xrotation
			JOINT joint_16
			{
				OFFSET -50.497004 -13.404022 -424.754013
				CHANNELS 3 Zrotation Yrotation Xrotation
				JOINT joint_17
				{
					OFFSET 198.546007 -19.341003 -89.309000
					CHANNELS 3 Zrotation Yrotation Xrotation
					End Site
					{
						OFFSET 0.000000 0.000000 0.000000
					}
				}
			}
		}
	}
	JOINT joint_18
	{
		OFFSET -0.867996 96.016006 -110.817993
		CHANNELS 3 Zrotation Yrotation Xrotation
		JOINT joint_19
		{
			OFFSET -10.130997 24.658998 -493.645020
			CHANNELS 3 Zrotation Yrotation Xrotation
			JOINT joint_20
			{
				OFFSET -48.871004 19.434999 -424.714005
				CHANNELS 3 Zrotation Yrotation Xrotation
				JOINT joint_21
				{
					OFFSET 195.579996 24.926001 -94.327003
					CHANNELS 3 Zrotation Yrotation Xrotation
					End Site
					{
						OFFSET 0.000000 0.000000 0.000000
					}
				}
			}
		}
	}
}
MOTION
Frames: 9
Frame Time: 0.016667
-2648.846191 883.681946 1142.897949 -0.628072 -5.769497 -1.323269 -0.103553 -1.370335 1.593208 -0.091554 0.179597 -0.330433 -0.101577 -0.271355 0.240080 -0.326732 2.742974 0.872985 0.000000 0.000000 0.000000 0.055608 2.270633 0.095707 -0.449802 2.355390 -1.204165 0.100521 -0.687437 -0.130231 0.000000 0.000000 0.000000 0.055269 0.783564 -0.416074 0.354501 0.836524 1.696703 0.168701 0.860543 -0.082383 0.000000 0.000000 0.000000 1.349628 1.869335 0.939020 1.282582 3.893079 1.057232 1.635261 -4.221472 0.320675 0.000000 0.000000 0.000000 -3.497901 0.688389 2.650482 -3.455890 0.180904 -1.718515 -3.509672 -0.106303 -1.659467 0.000000 0.000000 0.000000 
-2649.027588 883.732788 1142.855957 -0.619109 -5.781668 -1.324048 -0.108132 -1.365126 1.593578 -0.096273 0.177114 -0.330681 -0.106168 -0.268061 0.239609 -0.326142 2.740637 0.871440 0.000000 0.000000 0.000000 0.064437 2.283702 0.128127 -0.454508 2.370544 -1.232874 0.105724 -0.706894 -0.119262 0.000000 0.000000 0.000000 0.070985 0.797009 -0.447733 0.357066 0.847479 1.718429 0.166575 0.856763 -0.089593 0.000000 0.000000 0.000000 1.348431 1.858987 0.936357 1.279744 3.920531 1.061837 1.633807 -4.215642 0.320565 0.000000 0.000000 0.000000 -3.500973 0.677568 2.645591 -3.457619 0.200646 -1.715065 -3.510485 -0.083122 -1.662732 0.000000 0.000000 0.000000 
-2649.205566 883.778870 1142.811035 -0.610235 -5.795504 -1.323694 -0.112806 -1.357468 1.591707 -0.101095 0.174677 -0.331287 -0.110844 -0.263659 0.239605 -0.325746 2.742356 0.870445 0.000000 0.000000 0.000000 0.073708 2.295378 0.162562 -0.458871 2.384313 -1.259047 0.110078 -0.724712 -0.111773 0.000000 0.000000 0.000000 0.084211 0.810349 -0.480087 0.360297 0.858890 1.742421 0.165271 0.854245 -0.093739 0.000000 0.000000 0.000000 1.347005 1.850926 0.934658 1.276984 3.946938 1.062329 1.631758 -4.206294 0.320532 0.000000 0.000000 0.000000 -3.503395 0.666542 2.639339 -3.458480 0.224449 -1.711937 -3.510692 -0.059959 -1.665707 0.000000 0.000000 0.000000 
-2649.382080 883.823059 1142.762939 -0.601629 -5.810345 -1.323131 -0.117400 -1.347821 1.589421 -0.105839 0.172922 -0.331873 -0.115467 -0.259777 0.239132 -0.325680 2.747864 0.870360 0.000000 0.000000 0.000000 0.082715 2.306653 0.198508 -0.462941 2.397570 -1.283615 0.114402 -0.742789 -0.104752 0.000000 0.000000 0.000000 0.096186 0.823665 -0.512609 0.363896 0.870564 1.767582 0.164435 0.852571 -0.096291 0.000000 0.000000 0.000000 1.345306 1.843911 0.933779 1.274094 3.973281 1.060755 1.629256 -4.195037 0.320484 0.000000 0.000000 0.000000 -3.505629 0.655539 2.632855 -3.459038 0.250397 -1.708965 -3.510701 -0.036319 -1.668648 0.000000 0.000000 0.000000 
-2649.559570 883.863220 1142.713013 -0.593982 -5.823081 -1.322295 -0.122224 -1.340957 1.586035 -0.110783 0.171478 -0.331575 -0.120305 -0.256254 0.238172 -0.325838 2.755926 0.870883 0.000000 0.000000 0.000000 0.090978 2.318262 0.235720 -0.466747 2.410963 -1.307050 0.119268 -0.762506 -0.096168 0.000000 0.000000 0.000000 0.109933 0.837162 -0.545902 0.367796 0.882147 1.795463 0.163635 0.852201 -0.100187 0.000000 0.000000 0.000000 1.344062 1.833795 0.932123 1.271417 4.000656 1.060640 1.627158 -4.183651 0.320627 0.000000 0.000000 0.000000 -3.507402 0.642916 2.627795 -3.459077 0.274798 -1.708745 -3.510452 -0.011833 -1.671569 0.000000 0.000000 0.000000 
-2649.739502 883.898071 1142.661987 -0.587134 -5.832682 -1.321913 -0.127402 -1.337983 1.583370 -0.116061 0.169281 -0.332286 -0.125468 -0.253157 0.238358 -0.325657 2.767266 0.870521 0.000000 0.000000 0.000000 0.097939 2.330375 0.274029 -0.470296 2.424567 -1.328980 0.124521 -0.783244 -0.086309 0.000000 0.000000 0.000000 0.126288 0.850867 -0.580595 0.371973 0.893506 1.826117 0.162822 0.853839 -0.106535 0.000000 0.000000 0.000000 1.343329 1.818966 0.930011 1.268872 4.030001 1.063190 1.625601 -4.173039 0.320936 0.000000 0.000000 0.000000 -3.509313 0.628739 2.625966 -3.459288 0.295132 -1.712589 -3.510656 0.013562 -1.674815 0.000000 0.000000 0.000000 
-2649.919922 883.929871 1142.609985 -0.581408 -5.839826 -1.321773 -0.133057 -1.339402 1.580805 -0.121731 0.169501 -0.332345 -0.131118 -0.251985 0.237619 -0.325746 2.782233 0.870897 0.000000 0.000000 0.000000 0.105622 2.343225 0.313929 -0.473703 2.438987 -1.350176 0.130399 -0.806038 -0.074839 0.000000 0.000000 0.000000 0.145134 0.865247 -0.616134 0.376457 0.905142 1.859632 0.161941 0.856520 -0.114497 0.000000 0.000000 0.000000 1.342832 1.800630 0.927640 1.266318 4.060335 1.067198 1.624201 -4.161520 0.321403 0.000000 0.000000 0.000000 -3.511019 0.612819 2.626074 -3.459255 0.313461 -1.718884 -3.510772 0.040406 -1.678198 0.000000 0.000000 0.000000 
-2650.097656 883.962952 1142.555054 -0.576943 -5.846776 -1.320149 -0.138938 -1.340445 1.577201 -0.127637 0.168649 -0.334086 -0.136959 -0.249717 0.237755 -0.325277 2.796792 0.869801 0.000000 0.000000 0.000000 0.113303 2.356735 0.352953 -0.476899 2.454025 -1.371361 0.137559 -0.831811 -0.058681 0.000000 0.000000 0.000000 0.164621 0.880612 -0.650799 0.380880 0.917630 1.893852 0.160560 0.858178 -0.124019 0.000000 0.000000 0.000000 1.342822 1.782509 0.923594 1.264240 4.089744 1.071469 1.623219 -4.149150 0.322139 0.000000 0.000000 0.000000 -3.512205 0.596839 2.623548 -3.458764 0.331712 -1.723203 -3.510143 0.068177 -1.681349 0.000000 0.000000 0.000000 
-2650.271484 883.996399 1142.500000 -0.572842 -5.854078 -1.316471 -0.144804 -1.340622 1.568874 -0.133533 0.167864 -0.332562 -0.142793 -0.247708 0.236114 -0.324905 2.811165 0.868967 0.000000 0.000000 0.000000 0.120254 2.372071 0.390315 -0.479778 2.470699 -1.392372 0.146919 -0.862931 -0.034743 0.000000 0.000000 0.000000 0.181970 0.897906 -0.683102 0.385054 0.932389 1.928569 0.158001 0.856491 -0.136126 0.000000 0.000000 0.000000 1.342842 1.765943 0.917548 1.262286 4.117288 1.075297 1.622210 -4.136051 0.322934 0.000000 0.000000 0.000000 -3.513238 0.581762 2.616773 -3.458306 0.349228 -1.723627 -3.508938 0.097288 -1.684403 0.000000 0.000000 0.000000 
